<svg xmlns="http://www.w3.org/2000/svg" x="0px" y="0px" width="100" height="100" viewBox="0,0,256,256">
<g fill="#231f20" fill-rule="nonzero" stroke="none" stroke-width="1" stroke-linecap="butt" stroke-linejoin="miter" stroke-miterlimit="10" stroke-dasharray="" stroke-dashoffset="0" font-family="none" font-weight="none" font-size="none" text-anchor="none" style="mix-blend-mode: normal"><g transform="scale(5.12,5.12)"><path d="M25,2c-2.212,0 -4,1.788 -4,4c0,0.31968 0.04857,0.62597 0.11914,0.92383l-10.17383,5.38672c-0.73103,-0.80043 -1.77379,-1.31055 -2.94531,-1.31055c-2.212,0 -4,1.788 -4,4c0,1.8551 1.27635,3.40992 3,3.85742v12.28516c-1.72358,0.44533 -3,1.9931 -3,3.85742c0,2.201 1.788,4 4,4c1.17152,0 2.21429,-0.51012 2.94531,-1.31055l10.17383,5.38672c-0.07057,0.29785 -0.11914,0.60415 -0.11914,0.92383c0,2.212 1.788,4 4,4c2.212,0 4,-1.799 4,-4c0,-0.31968 -0.04857,-0.62597 -0.11914,-0.92383l10.17383,-5.38672c0.73103,0.80043 1.77379,1.31055 2.94531,1.31055c2.212,0 4,-1.799 4,-4c0,-1.86432 -1.27642,-3.4121 -3,-3.85742v-12.28516c1.72365,-0.4475 3,-2.00232 3,-3.85742c0,-2.212 -1.788,-4 -4,-4c-1.17152,0 -2.21429,0.51012 -2.94531,1.31055l-10.17383,-5.38672c0.07094,-0.29782 0.11914,-0.60487 0.11914,-0.92383c0,-2.212 -1.788,-4 -4,-4zM22.05469,8.68945c0.04308,0.04717 0.07778,0.10143 0.12305,0.14648l-13.0918,22.33203c-0.02902,-0.00821 -0.05665,-0.01978 -0.08594,-0.02734v-12.2832c1.72358,-0.44533 3,-1.9931 3,-3.85742c0,-0.31968 -0.04857,-0.62597 -0.11914,-0.92383zM27.94336,8.68945l10.17578,5.38672c-0.07057,0.29785 -0.11914,0.60415 -0.11914,0.92383c0,1.86432 1.27642,3.4121 3,3.85742v12.2832c-0.02929,0.00756 -0.05691,0.01914 -0.08594,0.02734l-13.09375,-22.33398c0.04486,-0.04467 0.08033,-0.09779 0.12305,-0.14453zM26.08594,9.83008l13.0918,22.33398c-0.49957,0.49715 -0.85318,1.13161 -1.03516,1.83594h-26.28516c-0.18198,-0.70432 -0.53559,-1.33879 -1.03516,-1.83594l13.0918,-22.33203c0.34737,0.0982 0.70678,0.16797 1.08594,0.16797c0.37929,0 0.73846,-0.07118 1.08594,-0.16992zM12.02539,36h25.94922l-10.0293,5.31055c-0.73103,-0.80043 -1.77379,-1.31055 -2.94531,-1.31055c-1.17152,0 -2.21429,0.51012 -2.94531,1.31055z"></path></g></g>
</svg>
